<?xml version="1.0" encoding="UTF-8"?><svg id="Layer_2" xmlns="http://www.w3.org/2000/svg" xmlns:xlink="http://www.w3.org/1999/xlink" viewBox="0 0 373.29 269.84"><defs><linearGradient id="linear-gradient" x1="267.7" y1="6.96" x2="231.87" y2="69.03" gradientUnits="userSpaceOnUse"><stop offset="0" stop-color="#fff"/><stop offset=".31" stop-color="#fffefd"/><stop offset=".42" stop-color="#fffaf6"/><stop offset=".45" stop-color="#fff9f3"/><stop offset=".57" stop-color="#fef7f0"/><stop offset=".65" stop-color="#fef3e7"/><stop offset=".72" stop-color="#feecd9"/><stop offset=".78" stop-color="#fde3c4"/><stop offset=".83" stop-color="#fcd6a9"/><stop offset=".89" stop-color="#fbc688"/><stop offset=".93" stop-color="#f9b461"/><stop offset=".98" stop-color="#f79f35"/><stop offset="1" stop-color="#f7941d"/></linearGradient><linearGradient id="linear-gradient-2" x1="171.14" y1="97.9" x2="218.46" y2="179.86" gradientUnits="userSpaceOnUse"><stop offset="0" stop-color="#fff"/><stop offset="1" stop-color="#f7941d"/></linearGradient><linearGradient id="linear-gradient-3" x1="170.46" y1="101.22" x2="216.51" y2="180.98" xlink:href="#linear-gradient-2"/><clipPath id="clippath"><rect x="282.04" y="12.53" width=".63" height="19.77" transform="translate(35.9 162.01) rotate(-34.07)" style="fill:none; stroke-width:0px;"/></clipPath><linearGradient id="linear-gradient-4" x1="135.99" y1="100.24" x2="135.99" y2="209.64" xlink:href="#linear-gradient-2"/><linearGradient id="linear-gradient-5" x1="-3608.22" y1="821.13" x2="-3638.72" y2="873.97" gradientTransform="translate(1294.32 -3441.39) rotate(-57.3)" xlink:href="#linear-gradient"/><linearGradient id="linear-gradient-6" x1="-3688.5" y1="897.97" x2="-3645.2" y2="972.97" gradientTransform="translate(1294.32 -3441.39) rotate(-57.3)" xlink:href="#linear-gradient-2"/><linearGradient id="linear-gradient-7" x1="-3689.03" y1="900.85" x2="-3646.84" y2="973.91" gradientTransform="translate(1294.32 -3441.39) rotate(-57.3)" xlink:href="#linear-gradient-2"/><filter id="luminosity-noclip" x="339.32" y="135.58" width="7.44" height="40.32" color-interpolation-filters="sRGB" filterUnits="userSpaceOnUse"><feFlood flood-color="#fff" result="bg"/><feBlend in="SourceGraphic" in2="bg"/></filter><mask id="mask" x="339.32" y="135.58" width="7.44" height="40.32" maskUnits="userSpaceOnUse"><g style="filter:url(#luminosity-noclip);"><image width="31" height="168" transform="translate(339.32 135.58) scale(.24)" xlink:href="../../../../var/folders/sm/9lbkd1rn3z7df8db42698q4m0000gn/T/TemporaryItems/NSIRD_Illustrator_bWMqUi/AI_27_9/Adobe/AISVG/0/bar-games-logo/bar-games-logo1.png"/></g></mask></defs><g id="Layer_1-2"><rect x="116.62" y="9.41" width="107.59" height="162.01" rx="11.12" ry="11.12" transform="translate(10.25 -17.11) rotate(5.93)" style="fill:#fff; stroke:#231f20; stroke-miterlimit:10; stroke-width:5px;"/><path d="m159.97,27.82c.4-3.85-2.4-7.29-6.24-7.69-1.55-.16-3.03.2-4.28.94-1.07-.98-2.44-1.64-4-1.8-3.85-.4-7.29,2.4-7.69,6.24-.19,1.79.32,3.48,1.3,4.83h-.03s7.68,12.01,7.68,12.01l10.56-9.68h-.04c1.49-1.14,2.52-2.85,2.73-4.85Z" style="fill:#ed1c24; stroke-width:0px;"/><path d="m215.71,33.61c.4-3.85-2.4-7.29-6.24-7.69-1.55-.16-3.03.2-4.28.94-1.07-.98-2.44-1.64-4-1.8-3.85-.4-7.29,2.4-7.69,6.24-.19,1.79.32,3.48,1.3,4.83h-.03s7.68,12.01,7.68,12.01l10.56-9.68h-.04c1.49-1.14,2.52-2.85,2.73-4.85Z" style="fill:#ed1c24; stroke-width:0px;"/><path d="m148.25,140.76c.4-3.85-2.4-7.29-6.24-7.69-1.55-.16-3.03.2-4.28.94-1.07-.98-2.44-1.64-4-1.8-3.85-.4-7.29,2.4-7.69,6.24-.19,1.79.32,3.48,1.3,4.83h-.03s7.68,12.01,7.68,12.01l10.56-9.68h-.04c1.49-1.14,2.52-2.85,2.73-4.85Z" style="fill:#ed1c24; stroke-width:0px;"/><path d="m203.99,146.55c.4-3.85-2.4-7.29-6.24-7.69-1.55-.16-3.03.2-4.28.94-1.07-.98-2.44-1.64-4-1.8-3.85-.4-7.29,2.4-7.69,6.24-.19,1.79.32,3.48,1.3,4.83h-.03s7.68,12.01,7.68,12.01l10.56-9.68h-.04c1.49-1.14,2.52-2.85,2.73-4.85Z" style="fill:#ed1c24; stroke-width:0px;"/><path d="m182.14,85.66c.4-3.85-2.4-7.29-6.24-7.69-1.55-.16-3.03.2-4.28.94-1.07-.98-2.44-1.64-4-1.8-3.85-.4-7.29,2.4-7.69,6.24-.19,1.79.32,3.48,1.3,4.83h-.03s7.68,12.01,7.68,12.01l10.56-9.68h-.04c1.49-1.14,2.52-2.85,2.73-4.85Z" style="fill:#ed1c24; stroke-width:0px;"/><rect x="221.83" y="55.17" width="105.8" height="159.32" rx="11.12" ry="11.12" transform="translate(136.07 -137.99) rotate(36.92)" style="fill:#fff; stroke:#231f20; stroke-miterlimit:10; stroke-width:5px;"/><path d="m297.61,76.77c2.28-3.04,1.67-7.36-1.37-9.64-1.23-.92-2.66-1.36-4.09-1.37-.41-1.37-1.23-2.62-2.46-3.54-3.04-2.28-7.36-1.67-9.64,1.37-1.06,1.41-1.49,3.1-1.35,4.73l-.02-.02.39,14.01,13.81-2.81-.03-.03c1.83-.2,3.57-1.12,4.76-2.7Z" style="fill:#ed1c24; stroke-width:0px;"/><path d="m341.67,109.87c2.28-3.04,1.67-7.36-1.37-9.64-1.23-.92-2.66-1.36-4.09-1.37-.41-1.37-1.23-2.62-2.46-3.54-3.04-2.28-7.36-1.67-9.64,1.37-1.06,1.41-1.49,3.1-1.35,4.73l-.02-.02.39,14.01,13.81-2.81-.03-.03c1.83-.2,3.57-1.12,4.76-2.7Z" style="fill:#ed1c24; stroke-width:0px;"/><path d="m230.54,166.04c2.28-3.04,1.67-7.36-1.37-9.64-1.23-.92-2.66-1.36-4.09-1.37-.41-1.37-1.23-2.62-2.46-3.54-3.04-2.28-7.36-1.67-9.64,1.37-1.06,1.41-1.49,3.1-1.35,4.73l-.02-.02.39,14.01,13.81-2.81-.03-.03c1.83-.2,3.57-1.12,4.76-2.7Z" style="fill:#ed1c24; stroke-width:0px;"/><path d="m274.6,199.14c2.28-3.04,1.67-7.36-1.37-9.64-1.23-.92-2.66-1.36-4.09-1.37-.41-1.37-1.23-2.62-2.46-3.54-3.04-2.28-7.36-1.67-9.64,1.37-1.06,1.41-1.49,3.1-1.35,4.73l-.02-.02.39,14.01,13.81-2.81-.03-.03c1.83-.2,3.57-1.12,4.76-2.7Z" style="fill:#ed1c24; stroke-width:0px;"/><rect x="174.98" y="15.33" width="121.23" height="182.56" rx="11.12" ry="11.12" transform="translate(58.57 -81.89) rotate(22.45)" style="fill:#fff; stroke:#231f20; stroke-miterlimit:10; stroke-width:5px;"/><path d="m244.37,35.64c1.66-4.03-.25-8.64-4.28-10.31-1.63-.67-3.34-.75-4.93-.35-.84-1.4-2.11-2.56-3.74-3.23-4.03-1.66-8.64.25-10.31,4.28-.77,1.87-.77,3.87-.14,5.64h-.03s4.45,15.42,4.45,15.42l14.51-7.07-.04-.02c1.97-.74,3.64-2.26,4.5-4.36Z" style="fill:#ed1c24; stroke-width:0px;"/><path d="m302.73,59.76c1.66-4.03-.25-8.64-4.28-10.31-1.63-.67-3.34-.75-4.93-.35-.84-1.4-2.11-2.56-3.74-3.23-4.03-1.66-8.64.25-10.31,4.28-.77,1.87-.77,3.87-.14,5.64h-.03s4.45,15.42,4.45,15.42l14.51-7.07-.04-.02c1.97-.74,3.64-2.26,4.5-4.36Z" style="fill:#ed1c24; stroke-width:0px;"/><path d="m195.51,153.89c1.66-4.03-.25-8.64-4.28-10.31-1.63-.67-3.34-.75-4.93-.35-.84-1.4-2.11-2.56-3.74-3.23-4.03-1.66-8.64.25-10.31,4.28-.77,1.87-.77,3.87-.14,5.64h-.03s4.45,15.42,4.45,15.42l14.51-7.07-.04-.02c1.97-.74,3.64-2.26,4.5-4.36Z" style="fill:#ed1c24; stroke-width:0px;"/><path d="m253.87,178.01c1.66-4.03-.25-8.64-4.28-10.31-1.63-.67-3.34-.75-4.93-.35-.84-1.4-2.11-2.56-3.74-3.23-4.03-1.66-8.64.25-10.31,4.28-.77,1.87-.77,3.87-.14,5.64h-.03s4.45,15.42,4.45,15.42l14.51-7.07-.04-.02c1.97-.74,3.64-2.26,4.5-4.36Z" style="fill:#ed1c24; stroke-width:0px;"/><path d="m220.6,93.17c1.66-4.03-.25-8.64-4.28-10.31-1.63-.67-3.34-.75-4.93-.35-.84-1.4-2.11-2.56-3.74-3.23-4.03-1.66-8.64.25-10.31,4.28-.77,1.87-.77,3.87-.14,5.64h-.03s4.45,15.42,4.45,15.42l14.51-7.07-.04-.02c1.97-.74,3.64-2.26,4.5-4.36Z" style="fill:#ed1c24; stroke-width:0px;"/><path d="m278.96,117.29c1.66-4.03-.25-8.64-4.28-10.31-1.63-.67-3.34-.75-4.93-.35-.84-1.4-2.11-2.56-3.74-3.23-4.03-1.66-8.64.25-10.31,4.28-.77,1.87-.77,3.87-.14,5.64h-.03s4.45,15.42,4.45,15.42l14.51-7.07-.04-.02c1.97-.74,3.64-2.26,4.5-4.36Z" style="fill:#ed1c24; stroke-width:0px;"/><rect x="290.97" y="191.77" width="55.12" height="31.59" style="fill:#231f20; stroke-width:0px;"/><path d="m283.9,27.85c.9-1.04,1.45-2.39,1.45-3.87,0-3.27-2.65-5.91-5.91-5.91-.65,0-1.28.11-1.86.3-.84-.92-1.72-1.81-2.67-2.68.13-.44.2-.9.2-1.38,0-2.71-2.19-4.9-4.9-4.9-1.03,0-1.98.32-2.77.86-1.01-.58-2.06-1.13-3.15-1.65,0-.07.01-.15.01-.22,0-3.27-2.65-5.91-5.91-5.91-1.98,0-3.74.98-4.81,2.48-1.08-.24-2.18-.46-3.31-.64-23.43-3.75-38.34,15.48-28.11,32.28-.68,1.21-1.07,2.6-1.07,4.09,0,4.62,3.74,8.36,8.36,8.36.39,0,.77-.04,1.14-.09,5.69,17.08-2.38,17.94-2.38,17.94l9.59,5.41c4.29-8.55,3.39-18.73,21.05-15.23,1.13,3.28,4.24,5.65,7.9,5.65s6.78-2.37,7.9-5.65c11.93-3.71,14.89-16.89,9.26-29.23Z" style="fill:url(#linear-gradient); stroke:#231f20; stroke-miterlimit:10; stroke-width:2px;"/><path d="m214.08,122.2l24.21-49.03-11.72-7.28-32.77,43.72c-5.29-3.28-20.36,11.77-20.36,11.77l-36.36,58.58,9.42,5.85,20.28,12.59,9.42,5.85,36.36-58.58s6.8-20.18,1.51-23.47Z" style="fill:url(#linear-gradient-2); stroke:#231f20; stroke-miterlimit:10; stroke-width:3px;"/><path d="m137.09,179.97l36.36-58.58c14.5-14.01,20.36-11.77,20.36-11.77,6-6.46,28.91-38.57,28.91-38.57,0,0,3.93-.15,5.59.89,1.66,1.03-1.52,1.51.96,3.18s3.4-.05,5.36.74-20.54,46.34-20.54,46.34c0,0,5.34,7.36-1.51,23.47l-36.36,58.58-39.12-24.28Z" style="fill:url(#linear-gradient-3); stroke:#231f20; stroke-miterlimit:10; stroke-width:3px;"/><rect x="155.55" y="141.14" width="44.57" height="33.7" transform="translate(110.05 -70.03) rotate(31.83)" style="fill:#6277ba; stroke-width:0px;"/><path d="m288.87,30.07c-.11.07-.35-.09-.53-.36l-.41-.6-10.34-15.3c-.18-.27-.25-.55-.14-.63l1.52-1.03c.11-.07.35.09.53.36l10.75,15.9c.18.27.25.55.14.63l-1.52,1.03Z" style="fill:#231f20; stroke:#231f20; stroke-miterlimit:10; stroke-width:2px;"/><g style="clip-path:url(#clippath);"><polygon points="278.56 13.98 279.51 14.27 278.64 12.99 278.56 13.98" style="fill:#231f20; stroke-width:0px;"/><polygon points="279.2 14.91 280.14 15.21 279.27 13.92 279.2 14.91" style="fill:#231f20; stroke-width:0px;"/><polygon points="279.83 15.84 280.77 16.14 279.9 14.86 279.83 15.84" style="fill:#231f20; stroke-width:0px;"/><polygon points="280.46 16.78 281.4 17.07 280.53 15.79 280.46 16.78" style="fill:#231f20; stroke-width:0px;"/><polygon points="281.09 17.71 282.03 18.01 281.16 16.72 281.09 17.71" style="fill:#231f20; stroke-width:0px;"/><polygon points="281.72 18.64 282.66 18.94 281.8 17.66 281.72 18.64" style="fill:#231f20; stroke-width:0px;"/><polygon points="282.35 19.58 283.3 19.88 282.43 18.59 282.35 19.58" style="fill:#231f20; stroke-width:0px;"/><polygon points="282.98 20.51 283.93 20.81 283.06 19.52 282.98 20.51" style="fill:#231f20; stroke-width:0px;"/><polygon points="283.62 21.44 284.56 21.74 283.69 20.46 283.62 21.44" style="fill:#231f20; stroke-width:0px;"/><polygon points="284.25 22.38 285.19 22.68 284.32 21.39 284.25 22.38" style="fill:#231f20; stroke-width:0px;"/><polygon points="284.88 23.31 285.82 23.61 284.95 22.33 284.88 23.31" style="fill:#231f20; stroke-width:0px;"/><polygon points="285.51 24.25 286.45 24.54 285.58 23.26 285.51 24.25" style="fill:#231f20; stroke-width:0px;"/><polygon points="286.14 25.18 287.08 25.48 286.22 24.19 286.14 25.18" style="fill:#231f20; stroke-width:0px;"/><polygon points="286.77 26.11 287.72 26.41 286.85 25.13 286.77 26.11" style="fill:#231f20; stroke-width:0px;"/><polygon points="287.4 27.05 288.35 27.35 287.48 26.06 287.4 27.05" style="fill:#231f20; stroke-width:0px;"/><polygon points="288.04 27.98 288.98 28.28 288.11 26.99 288.04 27.98" style="fill:#231f20; stroke-width:0px;"/><polygon points="276.37 14.1 277.31 14.4 276.44 13.11 276.37 14.1" style="fill:#231f20; stroke-width:0px;"/><polygon points="277 15.03 277.94 15.33 277.08 14.05 277 15.03" style="fill:#231f20; stroke-width:0px;"/><polygon points="277.63 15.97 278.58 16.26 277.71 14.98 277.63 15.97" style="fill:#231f20; stroke-width:0px;"/><polygon points="278.26 16.9 279.21 17.2 278.34 15.91 278.26 16.9" style="fill:#231f20; stroke-width:0px;"/><polygon points="278.9 17.83 279.84 18.13 278.97 16.85 278.9 17.83" style="fill:#231f20; stroke-width:0px;"/><polygon points="279.53 18.77 280.47 19.07 279.6 17.78 279.53 18.77" style="fill:#231f20; stroke-width:0px;"/><polygon points="280.16 19.7 281.1 20 280.23 18.71 280.16 19.7" style="fill:#231f20; stroke-width:0px;"/><polygon points="280.79 20.63 281.73 20.93 280.86 19.65 280.79 20.63" style="fill:#231f20; stroke-width:0px;"/><polygon points="281.42 21.57 282.36 21.87 281.5 20.58 281.42 21.57" style="fill:#231f20; stroke-width:0px;"/><polygon points="282.05 22.5 283 22.8 282.13 21.52 282.05 22.5" style="fill:#231f20; stroke-width:0px;"/><polygon points="282.68 23.44 283.63 23.73 282.76 22.45 282.68 23.44" style="fill:#231f20; stroke-width:0px;"/><polygon points="283.32 24.37 284.26 24.67 283.39 23.38 283.32 24.37" style="fill:#231f20; stroke-width:0px;"/><polygon points="283.95 25.3 284.89 25.6 284.02 24.32 283.95 25.3" style="fill:#231f20; stroke-width:0px;"/><polygon points="284.58 26.24 285.52 26.54 284.65 25.25 284.58 26.24" style="fill:#231f20; stroke-width:0px;"/><polygon points="285.21 27.17 286.15 27.47 285.28 26.18 285.21 27.17" style="fill:#231f20; stroke-width:0px;"/><polygon points="285.84 28.1 286.78 28.4 285.92 27.12 285.84 28.1" style="fill:#231f20; stroke-width:0px;"/><polygon points="286.47 29.04 287.42 29.34 286.55 28.05 286.47 29.04" style="fill:#231f20; stroke-width:0px;"/><polygon points="287.1 29.97 288.05 30.27 287.18 28.99 287.1 29.97" style="fill:#231f20; stroke-width:0px;"/><polygon points="287.74 30.91 288.68 31.2 287.81 29.92 287.74 30.91" style="fill:#231f20; stroke-width:0px;"/><polygon points="276.07 17.02 277.01 17.32 276.14 16.04 276.07 17.02" style="fill:#231f20; stroke-width:0px;"/><polygon points="276.7 17.96 277.64 18.25 276.78 16.97 276.7 17.96" style="fill:#231f20; stroke-width:0px;"/><polygon points="277.33 18.89 278.28 19.19 277.41 17.9 277.33 18.89" style="fill:#231f20; stroke-width:0px;"/><polygon points="277.96 19.82 278.91 20.12 278.04 18.84 277.96 19.82" style="fill:#231f20; stroke-width:0px;"/><polygon points="278.6 20.76 279.54 21.06 278.67 19.77 278.6 20.76" style="fill:#231f20; stroke-width:0px;"/><polygon points="279.23 21.69 280.17 21.99 279.3 20.7 279.23 21.69" style="fill:#231f20; stroke-width:0px;"/><polygon points="279.86 22.62 280.8 22.92 279.93 21.64 279.86 22.62" style="fill:#231f20; stroke-width:0px;"/><polygon points="280.49 23.56 281.43 23.86 280.56 22.57 280.49 23.56" style="fill:#231f20; stroke-width:0px;"/><polygon points="281.12 24.49 282.06 24.79 281.2 23.51 281.12 24.49" style="fill:#231f20; stroke-width:0px;"/><polygon points="281.75 25.43 282.7 25.72 281.83 24.44 281.75 25.43" style="fill:#231f20; stroke-width:0px;"/><polygon points="282.38 26.36 283.33 26.66 282.46 25.37 282.38 26.36" style="fill:#231f20; stroke-width:0px;"/><polygon points="283.02 27.29 283.96 27.59 283.09 26.31 283.02 27.29" style="fill:#231f20; stroke-width:0px;"/><polygon points="283.65 28.23 284.59 28.53 283.72 27.24 283.65 28.23" style="fill:#231f20; stroke-width:0px;"/><polygon points="284.28 29.16 285.22 29.46 284.35 28.17 284.28 29.16" style="fill:#231f20; stroke-width:0px;"/><polygon points="284.91 30.09 285.85 30.39 284.98 29.11 284.91 30.09" style="fill:#231f20; stroke-width:0px;"/><polygon points="285.54 31.03 286.48 31.33 285.62 30.04 285.54 31.03" style="fill:#231f20; stroke-width:0px;"/></g><path d="m172.02,74.6c-2.06-16-15.29-28.34-31.31-28.34-13.5,0-25.01,8.76-29.54,21.09-11.03,1.27-21.62,14.44-21.62,26.19,0,12.61,11.9,19.34,24.08,19.34,3.07,0,6-.65,8.66-1.83,4.4,12.57,16.04,21.56,29.71,21.56,17.45,0,31.87-21.01,31.87-39.07,0-10.2-4.79-12.94-11.86-18.94Z" style="fill:#fff; stroke:#231f20; stroke-miterlimit:10; stroke-width:5px;"/><path d="m183.88,110.3v-16.77h-94.32v116.84h94.32v-100.07Z" style="fill:#fff; stroke:#231f20; stroke-miterlimit:10; stroke-width:5px;"/><path d="m192.49,103.85c-4.22,0-8.23,1.45-11.83,4.05v-4.54s-1.85-2.84-10.22-3.11c-8.37-.28-14.07,5.32-21.52,5.59-7.44.27-9.59,14.03-26.19,13.47-16.6-.55-30.06-15.45-30.06-15.45v105.78h87.98v-20.79c3.6,2.6,7.6,4.05,11.83,4.05,15.66,0,28.36-19.94,28.36-44.53s-12.7-44.53-28.36-44.53Zm0,81.59c-4.31,0-8.35-1.81-11.83-4.98v-64.18c3.48-3.17,7.52-4.98,11.83-4.98,13.04,0,23.61,16.6,23.61,37.07s-10.57,37.07-23.61,37.07Z" style="fill:#231f20; stroke:#231f20; stroke-miterlimit:10; stroke-width:5px;"/><path d="m92.3,106.13s11.47,15.12,29.85,15.12,18.64-12.46,26.01-13.19c12.37-1.21,12.85-6.92,21.22-7.65,9.57-.83,10.29,1.71,10.29,1.71v107.52h-87.38v-103.52Z" style="fill:url(#linear-gradient-4); stroke-width:0px;"/><rect x="92.09" y="90.65" width="89.25" height="5.77" style="fill:#fff; stroke-width:0px;"/><path d="m60.28,36.56c-.34-1.1-1.11-2.09-2.28-2.74-2.57-1.42-6.07-.66-7.81,1.69-.35.47-.6.97-.76,1.48-1.17.2-2.35.45-3.54.76-.28-.28-.6-.54-.98-.74-2.13-1.18-5.03-.55-6.47,1.4-.55.74-.81,1.57-.8,2.37-1,.48-2,1-2.99,1.56-.06-.03-.11-.07-.17-.1-2.57-1.42-6.07-.66-7.81,1.69-1.06,1.43-1.22,3.12-.61,4.55-.77.67-1.52,1.37-2.27,2.11-15.46,15.28-8.26,34.42,10.43,34.35.59,1.02,1.48,1.91,2.65,2.55,3.64,2.01,8.59.94,11.05-2.39.21-.28.38-.57.54-.86,16.5,3.33,13.2,8.96,13.2,8.96l9.04-3.99c-4.45-6.82-12.95-10.6-.77-21.83,3.19.62,6.71-.6,8.67-3.24,1.96-2.65,1.75-5.92-.23-8.17,3.44-10.23-5.36-18.11-18.1-19.41Z" style="fill:url(#linear-gradient-5); stroke:#231f20; stroke-miterlimit:10; stroke-width:2px;"/><path d="m97.38,128.05l-25.71-38.83-11.99,5.29,16.96,42.69c-5.41,2.39-1.59,19.82-1.59,19.82l26.75,51.76,9.64-4.25,20.74-9.15,9.64-4.25-26.75-51.76s-12.28-13.7-17.68-11.31Z" style="fill:url(#linear-gradient-6); stroke:#231f20; stroke-miterlimit:10; stroke-width:3px;"/><path d="m101.8,208.78l-26.75-51.76c-3.3-16.57,1.59-19.82,1.59-19.82-1.88-7.15-14.96-37.66-14.96-37.66,0,0,1.98-2.9,3.68-3.65s.38,1.75,3.02.69c2.64-1.06,1.77-2.47,3.45-3.54,1.67-1.07,25.56,35.01,25.56,35.01,0,0,8.65-.65,17.68,11.31l26.75,51.76-40.01,17.66Z" style="fill:url(#linear-gradient-7); stroke:#231f20; stroke-miterlimit:10; stroke-width:3px;"/><polygon points="132.12 173.9 93.39 190.99 80.31 165.7 119.05 148.6 132.12 173.9" style="fill:#6277ba; stroke-width:0px;"/><rect x="124.1" y="217.76" width="115.24" height="39.23" style="fill:#231f20; stroke-width:0px;"/><path d="m14.77,235.42c-1.53,0-3.08-.07-4.47-.19-4.24-.32-5.99-2.1-6.23-6.36l-2.02-33.54c-.37-5.71,1.51-8.14,7.19-9.26,4-.76,7.86-1.14,11.49-1.14,12.96,0,21.01,4.55,21.01,11.87,0,3.96-2.14,6.96-4.89,9.38,6.25,1.75,9.74,5.8,9.74,11.53s-3.79,10.41-10.97,13.65c-5.69,2.57-13.29,4.05-20.83,4.05Zm6.26-14.18c3.75-.44,6.64-1.9,6.64-3.52,0-1.03-1.25-1.56-3.7-1.56-1.21,0-2.41.15-3.43.41l.49,4.67Zm-2.12-17.4c3.29-.53,5.45-2.16,5.45-3.6,0-2.01-2.97-2.17-3.89-2.17-.69,0-1.4.1-2.05.28l.49,5.48Z" style="fill:#f7941d; stroke-width:0px;"/><path d="m20.72,186.93c10.79,0,19.01,3.37,19.01,9.87,0,4.17-2.82,7.24-7.73,10.55,7.42.68,12.57,3.86,12.57,10.37,0,10.61-16.19,15.7-29.81,15.7-1.47,0-2.94-.06-4.29-.18-3.25-.25-4.23-1.23-4.42-4.48l-2.02-33.55c-.31-4.72.92-6.26,5.58-7.17,3.56-.68,7.36-1.1,11.1-1.1m-3.62,19.07c5.03-.12,9.26-2.58,9.26-5.77,0-2.76-2.51-4.17-5.89-4.17-1.35,0-2.88.31-4.17.98l.8,8.95m2.15,17.36c5.52-.12,10.43-2.21,10.43-5.64,0-2.58-2.39-3.56-5.7-3.56-2.02,0-4.11.37-5.58,1.04l.86,8.16m1.47-40.43c-3.75,0-7.74.4-11.85,1.17-6.72,1.33-9.27,4.62-8.83,11.36l2.02,33.53c.3,5.2,2.86,7.82,8.08,8.22,1.44.13,3.04.2,4.63.2,16.8,0,33.81-6.77,33.81-19.7,0-5.71-2.88-9.98-8.11-12.36,1.94-2.32,3.27-5.1,3.27-8.56,0-8.56-8.82-13.87-23.01-13.87h0Zm-.02,18.34l-.11-1.21c.81.01,1.34.14,1.64.26-.25.27-.77.63-1.53.95h0Zm2.03,16.95c.41-.04.83-.06,1.24-.06.3,0,.57.01.8.03-.48.24-1.13.5-1.97.71l-.07-.68h0Z" style="fill:#231f20; stroke-width:0px;"/><path d="m79.93,235.23c-5.96,0-6.67-2.83-7.76-7.13l-.99-3.86-8.62.31-.39,2.16c-1.04,5.91-2.07,7.47-9.13,7.96l-1.78.12c-.43.02-.81.03-1.16.03-1.71,0-3.83-.21-5.09-1.85-1.34-1.74-.93-4.18-.36-6.34l9.39-34.42c1.6-6.03,4.05-7.57,13.07-8.21.71-.05,1.34-.08,1.9-.08,5,0,6.77,2.35,8.29,6.68l12.45,35.76c.75,2.1,1.35,4.52.09,6.38-1.26,1.86-3.75,2.2-6.01,2.29l-1.98.12c-.71.04-1.35.06-1.93.06Zm-12.08-23.13l-1.57-4.99-1.21,4.99h2.77Z" style="fill:#f7941d; stroke-width:0px;"/><path d="m69.02,185.94c3.65,0,4.96,1.22,6.4,5.35l12.45,35.75c1.59,4.48.61,5.83-4.11,6.01l-2.02.12c-.67.04-1.27.06-1.81.06-4.45,0-4.76-1.44-5.86-5.76l-1.35-5.27-11.84.43-.67,3.74c-.86,4.91-1.1,5.89-7.3,6.32l-1.78.12c-.36.02-.7.03-1.02.03-3.85,0-4.65-1.42-3.52-5.67l9.38-34.4c1.29-4.84,2.7-6.13,11.28-6.75.64-.05,1.22-.07,1.75-.07m-6.48,28.16h8.03l-4.54-14.47-3.5,14.47m6.48-32.16h0c-.61,0-1.28.03-2.05.08-10.78.77-13.21,3.49-14.86,9.71l-9.38,34.38c-.67,2.49-1.18,5.65.7,8.09,1.81,2.36,4.68,2.63,6.68,2.63.38,0,.79-.01,1.23-.03h.03s.03,0,.03,0l1.78-.12c3.11-.22,6.07-.58,8.16-2.6,1.9-1.84,2.32-4.24,2.81-7.02l.1-.55,5.4-.2.55,2.15.03.14c1.07,4.25,2.18,8.64,9.7,8.64.61,0,1.28-.02,2.04-.07l1.99-.12c1.7-.07,5.57-.24,7.55-3.17,1.77-2.61,1-5.74.13-8.18l-12.44-35.73c-2.34-6.67-5.76-8.03-10.18-8.03h0Z" style="fill:#231f20; stroke-width:0px;"/><path d="m96.43,236.18c-5.59,0-5.73-5.21-5.79-7.44l-.92-34.89c-.15-5.77,1.94-8.17,7.71-8.85,2.29-.29,4.83-.44,7.53-.44,15.19,0,24.26,5.79,24.26,15.49,0,5.06-2.52,9.49-7.7,13.48l6.49,8.55c1.36,1.82,2.66,3.96,2.16,6.15-.51,2.19-2.62,3.54-4.61,4.56l-2.06,1.09c-2.04,1.07-3.48,1.52-4.8,1.52-3.13,0-4.67-2.55-5.88-5.3l-4.08-9.54c-.64.29-1.27.54-1.86.77l.56,5.11c.72,6.45-1.68,8.09-6.99,9.17l-1.23.25c-1.09.21-2,.31-2.8.32Zm8.67-29.31c4.44-1.09,7.5-3.2,7.5-5.34,0-.91,0-2.6-3.76-2.6-1.62,0-3.33.32-4.61.63l.88,7.31Z" style="fill:#f7941d; stroke-width:0px;"/><path d="m104.98,186.56c11.65,0,22.26,3.68,22.26,13.49,0,5.15-3.13,9.38-8.52,13.06l7.73,10.18c2.88,3.86,2.52,5.52-1.78,7.73l-2.09,1.1c-1.61.84-2.85,1.29-3.86,1.29-1.72,0-2.81-1.29-4.05-4.11l-4.91-11.47c-1.66.92-3.56,1.66-5.03,2.15l.74,6.68c.55,4.91-.55,6.01-5.4,6.99l-1.23.25c-.93.18-1.73.28-2.41.28-2.8,0-3.69-1.6-3.79-5.49l-.92-34.9c-.12-4.78,1.23-6.26,5.95-6.81,2.39-.31,4.91-.43,7.3-.43m-1.59,22.69c6.19-.98,11.22-3.86,11.22-7.73,0-3.56-2.7-4.6-5.77-4.6-2.39,0-5.03.61-6.81,1.17l1.35,11.16m1.59-26.69c-2.78,0-5.41.16-7.81.46-6.78.79-9.61,4.05-9.44,10.88l.92,34.9c.16,6.22,2.78,9.38,7.78,9.38.93,0,1.96-.11,3.17-.35l1.25-.25c2.48-.5,5.27-1.22,7.05-3.44,1.57-1.95,1.8-4.28,1.65-6.6l1.43,3.33c.87,1.98,2.86,6.53,7.73,6.53,1.66,0,3.37-.52,5.71-1.74l2.11-1.12c2.36-1.21,4.91-2.88,5.6-5.87.69-2.99-.87-5.61-2.49-7.78l-5.35-7.05c4.61-4.07,6.94-8.69,6.94-13.8,0-10.95-9.82-17.49-26.26-17.49h0Zm1.45,18.59c.88-.14,1.7-.22,2.41-.22,1.06,0,1.56.17,1.74.26.01.07.03.18.03.34,0,.51-1.17,1.75-3.8,2.74l-.38-3.12h0Z" style="fill:#231f20; stroke-width:0px;"/><path d="m154.03,237.13c-12.98,0-26.41-10.11-26.41-27.02,0-15.16,11.67-26.16,27.76-26.16,3.42,0,7.02.54,10.39,1.56,1.98.6,4.37,1.56,5.31,3.75.94,2.18,0,4.58-.92,6.42l-.37.74c-1.42,2.85-2.87,5.2-6.17,5.21-1.03,0-2.19-.22-4.02-.75-1.76-.51-3.53-.78-5.15-.78-5.71,0-8.61,3.37-8.61,10.02s5.25,11.31,8.86,11.31c1.87,0,3.32-.79,4.29-2.31h-.47c-4.64-.09-6.34-1.8-6.5-6.54-.08-4.63,1.61-6.42,6.25-6.66l17-.8c.11,0,.23-.01.36-.01.87,0,2.91.3,3.08,3.05v.12s0,1.41,0,1.41c0,18.86-12.8,27.45-24.69,27.45Z" style="fill:#f7941d; stroke-width:0px;"/><path d="m155.38,185.95c3.19,0,6.56.49,9.81,1.47,4.48,1.35,5.27,3.19,3.19,7.36l-.37.74c-1.47,2.94-2.43,4.1-4.38,4.1-.9,0-2-.24-3.47-.67-1.9-.55-3.86-.86-5.7-.86-5.7,0-10.61,3-10.61,12.02,0,7.79,5.89,13.31,10.86,13.31,3.25,0,6.13-1.84,7.24-6.26l-3.37-.06c-3.56-.06-4.42-.92-4.54-4.6-.06-3.56.8-4.42,4.36-4.6l16.99-.8c.09,0,.18,0,.26,0,.77,0,1.03.29,1.09,1.17v1.41c0,17.78-11.84,25.45-22.69,25.45-12.02,0-24.41-9.38-24.41-25.02s11.9-24.16,25.76-24.16m0-4c-17.24,0-29.76,11.84-29.76,28.16,0,18.17,14.44,29.02,28.41,29.02,12.86,0,26.69-9.22,26.69-29.45v-1.66c-.19-2.99-2.19-4.92-5.09-4.92-.15,0-.31,0-.48.01l-16.96.8c-5.75.3-8.27,2.97-8.17,8.66v.03s0,.03,0,.03c.08,2.28.53,4.06,1.41,5.4-1.92-1.56-3.59-4.36-3.59-7.92,0-3.97.79-8.02,6.61-8.02,1.43,0,3.01.24,4.59.7,2.03.59,3.35.82,4.58.82,4.81,0,6.7-3.8,7.96-6.31l.37-.74c1.03-2.05,2.25-5.13.96-8.1-1.28-2.98-4.37-4.21-6.57-4.87-3.56-1.07-7.35-1.64-10.97-1.64h0Z" style="fill:#231f20; stroke-width:0px;"/><path d="m211.65,235.23c-5.96,0-6.67-2.83-7.76-7.13l-.99-3.86-8.62.31-.39,2.16c-1.04,5.91-2.07,7.47-9.13,7.96l-1.78.12c-.43.02-.81.03-1.16.03-1.71,0-3.83-.21-5.09-1.85-1.34-1.74-.93-4.18-.36-6.34l9.39-34.42c1.6-6.03,4.05-7.57,13.07-8.21.71-.05,1.34-.08,1.9-.08,5,0,6.77,2.35,8.29,6.68l12.45,35.76c.75,2.1,1.35,4.52.09,6.38-1.26,1.86-3.75,2.2-6.01,2.29l-1.98.12c-.71.04-1.35.06-1.93.06Zm-12.08-23.13l-1.57-4.99-1.21,4.99h2.77Z" style="fill:#f7941d; stroke-width:0px;"/><path d="m200.74,185.94c3.65,0,4.96,1.22,6.4,5.35l12.45,35.75c1.59,4.48.61,5.83-4.11,6.01l-2.02.12c-.67.04-1.27.06-1.81.06-4.45,0-4.77-1.44-5.86-5.76l-1.35-5.27-11.84.43-.67,3.74c-.86,4.91-1.1,5.89-7.3,6.32l-1.78.12c-.36.02-.7.03-1.02.03-3.85,0-4.65-1.42-3.52-5.67l9.38-34.4c1.29-4.84,2.7-6.13,11.28-6.75.64-.05,1.22-.07,1.75-.07m-6.48,28.16h8.03l-4.54-14.47-3.5,14.47m6.48-32.16h0c-.61,0-1.28.03-2.05.08-10.78.77-13.21,3.49-14.86,9.71l-9.38,34.38c-.67,2.49-1.18,5.65.7,8.09,1.81,2.36,4.68,2.63,6.68,2.63.38,0,.79-.01,1.23-.03h.03s.03,0,.03,0l1.78-.12c3.11-.22,6.07-.58,8.16-2.6,1.9-1.84,2.32-4.24,2.81-7.02l.1-.55,5.4-.2.55,2.15.03.14c1.07,4.25,2.18,8.64,9.7,8.64.61,0,1.28-.02,2.04-.07l1.99-.12c1.7-.07,5.57-.24,7.55-3.17,1.77-2.61,1-5.74.13-8.18l-12.44-35.73c-2.34-6.67-5.76-8.03-10.18-8.03h0Z" style="fill:#231f20; stroke-width:0px;"/><path d="m275.52,234.98c-8.14-.25-11.03-.99-11.51-8.31l-.79-12.08-5.39,14.61c-1,2.62-2.27,4.22-5.53,4.22-.33,0-.68-.01-1.07-.04-3.52-.16-5.05-1.3-6.23-4.71l-4.42-12.92-.71,10.98c-.23,3.65-1.17,7.04-6.49,7.04-1.18,0-2.64-.15-4.6-.47-2.34-.38-4.69-.99-5.99-2.81-1.3-1.82-1.1-4.23-.69-6.56l5.39-32.3c.81-4.63,2.32-7.3,7.67-7.3.49,0,1.03.02,1.6.05l2.83.18c5.72.35,7.96,2.05,9.97,7.57l4.01,10.96,4.1-9.82c2.3-5.38,4.61-6.97,10.32-7.12l3.14-.06c.25,0,.51,0,.75,0,5.43,0,7.45,1.94,8.02,7.7l3.19,33.06c.23,2.32.25,4.7-1.24,6.34-1.44,1.59-3.66,1.8-5.65,1.8-.22,0-.44,0-.67,0Z" style="fill:#f7941d; stroke-width:0px;"/><path d="m235.15,186.33c.45,0,.95.02,1.48.05l2.82.18c5.03.31,6.5,1.53,8.22,6.26l5.76,15.76,6.07-14.53c1.96-4.6,3.5-5.76,8.52-5.89l3.13-.06c.25,0,.48,0,.71,0,4.38,0,5.57,1.17,6.04,5.9l3.19,33.05c.47,4.63-.58,5.96-4.9,5.96-.2,0-.41,0-.62,0-8.03-.24-9.2-.86-9.57-6.44l-1.41-21.46-8.65,23.43c-.86,2.26-1.58,2.92-3.66,2.92-.29,0-.6-.01-.94-.03-2.76-.12-3.56-.73-4.48-3.37l-7.67-22.38-1.35,20.97c-.23,3.7-1.06,5.17-4.49,5.17-1.12,0-2.53-.16-4.28-.44-4.91-.8-5.89-2.15-5.03-7.05l5.4-32.32c.77-4.38,1.92-5.63,5.7-5.63m0-4c-7.09,0-8.82,4.3-9.64,8.94l-5.4,32.35c-.48,2.73-.69,5.62,1.03,8.04,1.72,2.42,4.52,3.17,7.3,3.62,2.06.34,3.63.5,4.92.5,7.93,0,8.33-6.48,8.48-8.92l.06-.98,1.18,3.43c1.45,4.17,3.71,5.87,8.04,6.07.43.03.81.04,1.16.04,4.67,0,6.36-2.78,7.4-5.49l2.15-5.83.18,2.7c.2,2.97.66,6.3,3.7,8.3,2.34,1.54,5.51,1.75,9.73,1.87.27,0,.51.01.74.01,2.28,0,5.16-.28,7.13-2.46,2.02-2.23,2.01-5.24,1.75-7.9l-3.19-33.04c-.67-6.76-3.57-9.51-10.02-9.51-.26,0-.53,0-.81.01l-3.11.06c-6.56.16-9.51,2.18-12.12,8.32l-2.15,5.14-2.25-6.17c-2.3-6.31-5.15-8.47-11.73-8.87l-2.81-.18c-.65-.04-1.22-.06-1.74-.06h0Z" style="fill:#231f20; stroke-width:0px;"/><path d="m312.03,235.05l-17.24-.31c-6.05-.08-8.14-2.03-8.58-8.05l-2.51-32.62c-.45-6.07,1.33-8.26,7.33-9.01l17.61-2.09c.76-.09,1.41-.13,1.98-.13,4.67,0,5.59,3.21,5.89,6.67.39,5.33-1.34,7.43-6.6,8.04l-9.7,1.12.23,2.36,6.39-.47c.52-.04,1-.06,1.43-.06,4.52,0,5.68,2.56,6.04,6.41.18,1.93.19,3.92-1.04,5.4-1.23,1.49-3.18,1.86-5.12,2.04l-6.01.5.36,2.62,8.51-.85c.78-.08,1.46-.12,2.06-.12,5.12,0,6.36,3,6.64,7.5l.12,2.86c.1,2.77-.12,4.91-1.56,6.4-1.49,1.55-3.8,1.76-5.87,1.76h-.36Z" style="fill:#f7941d; stroke-width:0px;"/><path d="m310.61,184.85c2.75,0,3.59,1.22,3.9,4.84.31,4.23-.68,5.4-4.84,5.89l-11.65,1.35.61,6.26,8.34-.61c.47-.04.9-.06,1.29-.06,2.88,0,3.72,1.08,4.05,4.6.37,3.86-.49,4.91-4.35,5.27l-8.09.68.92,6.62,10.42-1.04c.69-.07,1.31-.11,1.86-.11,3.39,0,4.38,1.41,4.64,5.63l.12,2.82c.18,4.79-.81,6.07-5.43,6.07-.11,0-.22,0-.34,0l-17.23-.31c-4.97-.06-6.26-1.23-6.62-6.19l-2.52-32.63c-.37-4.97.67-6.26,5.58-6.87l17.6-2.08c.65-.08,1.23-.12,1.74-.12m0-4c-.65,0-1.37.05-2.21.15l-17.6,2.09c-7.08.89-9.63,4.01-9.1,11.14l2.52,32.64c.52,7.02,3.48,9.8,10.56,9.89l17.21.31h.41c2.48,0,5.29-.28,7.31-2.37,2.04-2.12,2.22-5.03,2.12-7.85l-.12-2.84v-.04s0-.04,0-.04c-.16-2.48-.56-8.93-7.87-9.35.35-.27.67-.59.97-.95,1.69-2.05,1.7-4.62,1.49-6.87-.16-1.76-.54-5.84-4.24-7.5,4.92-1.12,6.87-4.14,6.46-9.83v-.03s0-.03,0-.03c-.2-2.32-.73-8.5-7.88-8.5h0Z" style="fill:#231f20; stroke-width:0px;"/><path d="m339.65,236.09c-6.53,0-13-1.67-17.73-4.59-1.43-.88-3.37-2.32-3.79-4.61-.41-2.21.79-4.16,1.77-5.45l.18-.31.07-.09c1.78-2.35,3.35-4.14,6.01-4.14,1.39,0,2.85.5,4.76,1.29,2.5,1.06,5.05,1.62,7.38,1.62,2.81,0,6.09-.89,6.09-3.4,0-1.58-4.24-2.38-7.99-3.08-7.32-1.38-17.34-3.26-17.34-13.54s8.33-16.35,23.46-16.35c1.85,0,3.86.11,5.96.32,5.35.53,7.29,2.73,7.14,8.12-.09,2.48-.23,6.6-5,6.6-.39,0-.89-.07-1.89-.22-1.59-.23-3.98-.58-6.21-.58s-4.7.41-4.8,1.54c.7.54,3.74.83,5.77,1.02,7.66.72,20.48,1.92,20.48,17.03,0,12.99-12.22,18.8-24.32,18.8Z" style="fill:#f7941d; stroke-width:0px;"/><path d="m342.53,185.46c1.96,0,3.92.12,5.77.31,4.35.43,5.46,1.72,5.34,6.07-.12,3.56-.68,4.66-3.01,4.66-.8,0-4.6-.8-8.1-.8-3.68,0-6.81.92-6.81,3.62,0,6.26,26.25-2.64,26.25,17.97,0,11.65-11.04,16.8-22.32,16.8-6.07,0-12.2-1.53-16.68-4.29-3.37-2.08-3.8-4.11-1.41-7.24l.18-.31c1.77-2.33,2.82-3.35,4.42-3.35,1.01,0,2.23.41,3.99,1.14,2.88,1.23,5.7,1.78,8.16,1.78,4.72,0,8.1-2.02,8.1-5.4,0-7.73-25.33-1.78-25.33-16.62,0-11.41,11.04-14.35,21.46-14.35m0-4c-16.18,0-25.46,6.69-25.46,18.35,0,5.29,2.51,9.45,7.26,12.03,3.58,1.95,7.9,2.76,11.71,3.48,2.01.38,4.91.92,6.16,1.51-.51.53-1.97,1-3.9,1-1.44,0-3.76-.25-6.59-1.46-2.16-.91-3.83-1.46-5.55-1.46-3.86,0-6.03,2.85-7.6,4.93l-.13.18-.11.19-.07.11c-.81,1.07-2.67,3.74-2.08,6.94.63,3.43,3.7,5.32,4.7,5.94,5.04,3.11,11.89,4.89,18.78,4.89s13-1.67,17.59-4.69c5.71-3.76,8.73-9.33,8.73-16.11,0-7.38-2.87-12.67-8.52-15.74-1.22-.66-2.5-1.18-3.8-1.59,3.75-1.56,3.91-6.07,3.98-7.98.18-6.52-2.49-9.56-8.94-10.19-2.17-.22-4.24-.33-6.16-.33h0Z" style="fill:#231f20; stroke-width:0px;"/><path d="m130.59,268.17l-15.73-.28c-5.29-.07-7.12-1.78-7.51-7.04l-2.29-29.76c-.39-5.3,1.16-7.21,6.4-7.87l16.07-1.9c.68-.08,1.26-.12,1.77-.12,4.2,0,4.81,2.99,5.05,5.79.34,4.69-1.11,6.44-5.74,6.99l-9.17,1.06.27,2.78,6.15-.45c.46-.04.89-.06,1.28-.06,3.88,0,4.88,2.22,5.19,5.55.41,4.34-.98,6.03-5.32,6.44l-5.82.49.42,3.04,8.08-.81c.7-.07,1.31-.1,1.84-.1,4.42,0,5.49,2.61,5.73,6.54l.11,2.6c.09,2.44-.1,4.32-1.33,5.6-1.27,1.32-3.21,1.5-5.12,1.5h-.32Z" style="fill:#fff; stroke-width:0px;"/><path d="m129.3,222.7c2.51,0,3.27,1.11,3.56,4.42.28,3.86-.61,4.92-4.42,5.37l-10.63,1.23.56,5.71,7.61-.56c.43-.03.82-.05,1.17-.05,2.63,0,3.4.99,3.69,4.19.34,3.53-.45,4.48-3.97,4.81l-7.39.61.84,6.04,9.51-.95c.63-.06,1.19-.1,1.69-.1,3.09,0,4,1.28,4.24,5.13l.11,2.57c.16,4.37-.74,5.54-4.95,5.54-.1,0-.2,0-.31,0l-15.72-.28c-4.53-.06-5.71-1.12-6.04-5.65l-2.29-29.76c-.34-4.53.61-5.71,5.09-6.27l16.06-1.9c.6-.07,1.12-.11,1.59-.11m0-3c-.57,0-1.2.04-1.94.13l-16.06,1.9c-6.1.76-8.19,3.33-7.73,9.47l2.29,29.77c.45,6.06,2.89,8.34,9,8.42l15.7.28h.36c2.13,0,4.53-.23,6.2-1.96,1.69-1.76,1.84-4.25,1.75-6.69l-.11-2.59v-.03s0-.03,0-.03c-.15-2.38-.5-7.95-7.23-7.95-.59,0-1.24.04-1.99.11l-1.39.14c4.44-.71,6.14-3.14,5.68-7.96-.3-3.21-1.32-6.91-6.68-6.91-.42,0-.88.02-1.41.06l-1.3.1,4.34-.5c5.42-.64,7.46-3.12,7.07-8.57-.19-2.18-.62-7.2-6.55-7.2h0Zm-6.41,31.46l2.62-.22-2.61.26v-.04h0Z" style="fill:#231f20; stroke-width:0px;"/><path d="m169.08,268.34c-5.18,0-5.78-2.35-6.76-6.25l-.97-3.77-8.38.3-.4,2.22c-.92,5.28-1.78,6.56-8.03,6.99l-1.62.11c-.38.02-.72.03-1.03.03-1.49,0-3.33-.18-4.39-1.56-1.14-1.48-.77-3.61-.27-5.5l8.56-31.39c1.42-5.32,3.59-6.68,11.63-7.26.62-.05,1.19-.07,1.71-.07,4.39,0,5.89,1.98,7.26,5.88l11.36,32.62c.66,1.84,1.19,3.95.12,5.53-1.07,1.58-3.24,1.87-5.23,1.95l-1.81.11c-.64.04-1.22.06-1.74.06Zm-10.58-20.46l-1.91-6.09-1.47,6.09h3.38Z" style="fill:#fff; stroke-width:0px;"/><path d="m159.13,223.69c3.33,0,4.52,1.12,5.84,4.88l11.36,32.62c1.45,4.08.56,5.31-3.75,5.48l-1.85.11c-.61.04-1.16.06-1.65.06-4.06,0-4.35-1.32-5.34-5.26l-1.23-4.81-10.8.39-.62,3.41c-.78,4.48-1.01,5.37-6.66,5.76l-1.62.11c-.33.02-.64.03-.93.03-3.51,0-4.24-1.3-3.21-5.17l8.56-31.39c1.18-4.42,2.46-5.59,10.29-6.15.58-.04,1.11-.07,1.6-.07m-5.91,25.69h7.33l-4.14-13.2-3.19,13.2m5.91-28.69h0c-.54,0-1.13.02-1.82.07-8.08.58-11.26,1.93-12.97,8.38l-8.55,31.37c-.6,2.26-1.01,4.82.52,6.82,1.48,1.92,3.89,2.15,5.58,2.15.34,0,.7-.01,1.09-.03h.03s.03,0,.03,0l1.62-.11c3.26-.23,5.45-.66,7.03-2.19,1.58-1.53,1.93-3.53,2.37-6.05l.18-1.02,5.97-.22.63,2.47.03.13c1,3.96,1.87,7.39,8.22,7.39.54,0,1.14-.02,1.83-.06l1.82-.11c2.35-.09,4.95-.48,6.38-2.6,1.44-2.13.83-4.67.04-6.88l-11.35-32.6c-1.49-4.26-3.46-6.89-8.67-6.89h0Z" style="fill:#231f20; stroke-width:0px;"/><path d="m209.99,268.34c-5.18,0-5.78-2.35-6.76-6.25l-.97-3.77-8.38.3-.4,2.22c-.92,5.28-1.78,6.56-8.03,6.99l-1.62.11c-.38.02-.72.03-1.03.03-1.49,0-3.33-.18-4.39-1.56-1.14-1.48-.77-3.61-.27-5.5l8.56-31.39c1.42-5.32,3.59-6.68,11.63-7.26.62-.05,1.19-.07,1.71-.07,4.39,0,5.89,1.98,7.26,5.88l11.36,32.62c.66,1.84,1.19,3.95.12,5.53-1.07,1.58-3.24,1.87-5.23,1.95l-1.81.11c-.64.04-1.22.06-1.74.06Zm-10.58-20.46l-1.91-6.09-1.47,6.09h3.38Z" style="fill:#fff; stroke-width:0px;"/><path d="m200.03,223.69c3.33,0,4.52,1.12,5.84,4.88l11.36,32.62c1.45,4.08.56,5.31-3.75,5.48l-1.85.11c-.61.04-1.16.06-1.65.06-4.06,0-4.35-1.32-5.34-5.26l-1.23-4.81-10.8.39-.62,3.41c-.78,4.48-1.01,5.37-6.66,5.76l-1.62.11c-.33.02-.64.03-.93.03-3.51,0-4.24-1.3-3.21-5.17l8.56-31.39c1.18-4.42,2.46-5.59,10.29-6.15.58-.04,1.11-.07,1.6-.07m-5.91,25.69h7.33l-4.14-13.2-3.19,13.2m5.91-28.69h0c-.54,0-1.13.02-1.82.07-8.08.58-11.26,1.93-12.97,8.38l-8.55,31.37c-.6,2.26-1.01,4.82.53,6.82,1.48,1.92,3.89,2.15,5.58,2.15.34,0,.7-.01,1.09-.03h.03s.03,0,.03,0l1.62-.11c3.26-.23,5.45-.66,7.03-2.19,1.58-1.53,1.93-3.53,2.37-6.05l.18-1.02,5.97-.22.63,2.47.03.13c1,3.96,1.87,7.39,8.22,7.39.54,0,1.14-.02,1.83-.06l1.82-.11c2.35-.09,4.95-.48,6.38-2.6,1.44-2.13.83-4.67.04-6.88l-11.35-32.6c-1.49-4.26-3.46-6.89-8.68-6.89h0Z" style="fill:#231f20; stroke-width:0px;"/><path d="m250.89,268.34c-5.18,0-5.78-2.35-6.77-6.25l-.96-3.77-8.38.3-.4,2.22c-.92,5.28-1.78,6.56-8.03,6.99l-1.62.11c-.38.02-.72.03-1.03.03-1.49,0-3.33-.18-4.39-1.56-1.14-1.48-.77-3.61-.27-5.5l8.56-31.39c1.42-5.32,3.59-6.68,11.63-7.26.62-.05,1.19-.07,1.71-.07,4.39,0,5.89,1.98,7.26,5.88l11.36,32.62c.66,1.84,1.19,3.95.12,5.53-1.07,1.58-3.24,1.87-5.23,1.95l-1.81.11c-.64.04-1.22.06-1.74.06Zm-10.58-20.46l-1.91-6.09-1.47,6.09h3.38Z" style="fill:#fff; stroke-width:0px;"/><path d="m240.93,223.69c3.33,0,4.52,1.12,5.84,4.88l11.36,32.62c1.45,4.08.56,5.31-3.75,5.48l-1.85.11c-.61.04-1.16.06-1.65.06-4.06,0-4.35-1.32-5.34-5.26l-1.23-4.81-10.8.39-.62,3.41c-.78,4.48-1.01,5.37-6.66,5.76l-1.62.11c-.33.02-.64.03-.93.03-3.51,0-4.24-1.3-3.21-5.17l8.56-31.39c1.18-4.42,2.46-5.59,10.29-6.15.58-.04,1.11-.07,1.6-.07m-5.91,25.69h7.33l-4.14-13.2-3.19,13.2m5.91-28.69h0c-.54,0-1.13.02-1.82.07-8.08.58-11.26,1.93-12.97,8.38l-8.55,31.37c-.6,2.26-1.01,4.82.52,6.82,1.48,1.92,3.89,2.15,5.58,2.15.34,0,.7-.01,1.09-.03h.03s.03,0,.03,0l1.62-.11c3.26-.23,5.45-.66,7.03-2.19,1.58-1.53,1.93-3.53,2.37-6.05l.18-1.02,5.97-.22.63,2.47.03.13c1,3.96,1.87,7.39,8.22,7.39.54,0,1.14-.02,1.83-.06l1.82-.11c2.35-.09,4.95-.48,6.38-2.6,1.44-2.13.83-4.67.04-6.88l-11.35-32.6c-1.49-4.26-3.46-6.89-8.68-6.89h0Z" style="fill:#231f20; stroke-width:0px;"/><path d="m255.39,257.98c-1.74,0-2.35-1.62-2.69-2.5l-5.51-14.5c-.94-2.5-.39-3.72,2.1-4.66l1.59-.62c.77-.3,1.35-.44,1.87-.44,1.86,0,2.4,1.82,2.65,2.69l.95,3.22.19-1.47c.19-1.6.69-2.6,2.69-2.98.5-.09.84-.13,1.14-.13,1.37,0,1.92.91,2.31,1.9l1.07,2.78.68-5c.22-1.66.74-3.21,3-3.21.31,0,.66.03,1.08.08l.88.14c1.01.13,2.05.38,2.65,1.2.6.82.52,1.88.34,2.91l-2.77,15.46c-.39,2.23-1.27,3.02-3.4,3.02-.13,0-.26,0-.4,0-2.32-.09-3.26-.77-4.02-2.93l-.78-2.19-.3,2.36c-.29,2.44-1.04,3.43-3.37,4.4-.83.34-1.43.49-1.96.49Z" style="fill:#f7941d; stroke-width:0px;"/><path d="m267.42,234.05c.28,0,.59.03.95.07l.86.13c2.09.28,2.52.87,2.16,2.95l-2.76,15.46c-.3,1.73-.77,2.19-2.41,2.19-.12,0-.24,0-.37,0-1.89-.07-2.48-.48-3.11-2.26l-2.19-6.13-.82,6.51c-.25,2.11-.77,2.77-2.76,3.6-.66.27-1.16.41-1.58.41-.81,0-1.26-.56-1.75-1.85l-5.5-14.5c-.75-1.98-.46-2.62,1.51-3.37l1.6-.62c.62-.24,1.11-.37,1.5-.37.86,0,1.29.6,1.69,1.98l2.29,7.78.8-6.19c.17-1.4.51-1.87,1.88-2.12.39-.07.7-.12.96-.12.69,0,1,.32,1.37,1.26l2.46,6.41,1.21-8.86c.23-1.73.67-2.34,2.01-2.34m0-2h0c-3.44,0-3.84,2.96-3.99,4.08l-.17,1.24c-.44-.8-1.26-1.78-2.89-1.78-.46,0-.93.08-1.33.15-1.32.25-2.22.75-2.78,1.61-.34-1.08-1.17-3.09-3.51-3.09-.65,0-1.34.16-2.23.51l-1.59.62c-3,1.13-3.8,2.91-2.66,5.94l5.51,14.5c.36.94,1.19,3.14,3.62,3.14.66,0,1.38-.17,2.33-.56,2.2-.92,3.24-1.93,3.73-3.81.87,1.53,2.13,2.15,4.31,2.24.16,0,.31,0,.45,0,2.61,0,3.92-1.15,4.38-3.85l2.76-15.45c.21-1.2.31-2.56-.52-3.69-.82-1.12-2.16-1.44-3.35-1.6l-.81-.13c-.51-.07-.9-.1-1.26-.1h0Z" style="fill:#231f20; stroke-width:0px;"/><path d="m282.93,253.18c-5.08,0-9.26-5.5-10.92-14.35-.17-.92-.32-2.04-.45-3.44-.09-.99-.1-2.1.59-2.9s1.77-.97,2.74-1.02l.8-.04c.31-.02.6-.04.87-.04,2.5,0,2.83,1.58,2.96,3.34.09.92.21,1.81.34,2.51.92,4.93,2.24,6.68,3.08,6.68h0s.1,0,.15-.01c1.67-.31,1.36-3.9.81-6.86-.19-1.03-.46-2.12-.8-3.32-.31-1.07-.43-1.94,0-2.7.46-.81,1.39-1.16,2.33-1.42.57-.17,1.04-.25,1.46-.25,1.9,0,2.4,1.71,2.64,2.54.33,1.2.63,2.47.88,3.8.54,2.91,1.01,7.13.15,10.75-.89,3.73-3.04,6.02-6.23,6.62-.47.09-.94.13-1.4.13Z" style="fill:#f7941d; stroke-width:0px;"/><path d="m286.89,230.35c.88,0,1.31.54,1.68,1.82.33,1.17.62,2.43.85,3.7,1.33,7.1.86,15.05-5.28,16.2-.41.08-.82.12-1.22.12-5.02,0-8.53-6.06-9.93-13.53-.19-1.01-.33-2.19-.44-3.35-.2-2.06.3-2.71,2.39-2.84l.8-.04c.3-.02.57-.04.81-.04,1.49,0,1.82.52,1.96,2.41.09.9.21,1.84.36,2.62.85,4.53,2.22,7.5,4.07,7.5.11,0,.22-.01.33-.03,2.28-.43,2.43-3.65,1.61-8.03-.23-1.22-.52-2.37-.83-3.41-.53-1.83-.26-2.36,1.63-2.88.47-.14.87-.21,1.19-.21m0-2h0c-.51,0-1.07.09-1.76.3-1.11.3-2.27.75-2.9,1.89-.63,1.13-.42,2.33-.09,3.47.34,1.16.59,2.22.78,3.23.87,4.64.15,5.58.07,5.66-.26-.21-1.3-1.32-2.14-5.84-.12-.67-.24-1.54-.33-2.44-.1-1.34-.33-4.22-3.96-4.22-.28,0-.59.01-.97.04l-.75.04c-1.12.07-2.52.28-3.46,1.37-.93,1.09-.93,2.52-.82,3.65.14,1.43.29,2.59.46,3.53,1.78,9.49,6.23,15.16,11.9,15.16.52,0,1.06-.05,1.59-.15,2.51-.47,5.77-2.13,7.02-7.37.9-3.79.42-8.16-.14-11.16-.25-1.35-.55-2.65-.89-3.87-.24-.83-.97-3.28-3.61-3.28h0Z" style="fill:#231f20; stroke-width:0px;"/><path d="m296.91,249.82c-1.87,0-2.67-.98-3.34-2.56-.99-2.31-.71-3.31,1.34-4.87,2.39-1.83,3.48-3.61,3.33-4.43-.05-.29-.15-.82-1.35-.82-.28,0-.6.03-.93.1-.43.08-.9.21-1.38.38-.53.19-.9.28-1.24.28-1.35,0-1.7-1.27-1.87-1.88l-1.57-5.97c-.06-.26-.2-.82.13-1.32.32-.5.87-.6,1.08-.64.1-.02.19-.04.28-.06.13-.03.25-.06.39-.09,2.13-.4,4.12-.6,5.92-.6,5.33,0,8.61,1.82,9.22,5.11.74,3.94-1.15,6.3-3.97,8.41l1.23-.14c.37-.04.7-.06.99-.06,2.42,0,2.89,1.67,3.14,3.23l.15.96c.17,1.03.24,2.09-.38,2.91s-1.67,1.04-2.71,1.15l-7.37.84c-.4.05-.76.07-1.08.07Z" style="fill:#f7941d; stroke-width:0px;"/><path d="m297.68,228.32c4.35,0,7.67,1.24,8.24,4.3.88,4.72-2.55,6.86-6.93,9.67l5.28-.59c.33-.04.62-.06.88-.06,1.42,0,1.87.6,2.16,2.39l.15.96c.34,2.08-.12,2.68-2.22,2.91l-7.38.85c-.36.04-.68.07-.96.07-1.27,0-1.8-.49-2.42-1.96-.81-1.89-.66-2.4,1.03-3.68,2.13-1.63,4-3.83,3.71-5.41-.23-1.22-1.19-1.64-2.33-1.64-.36,0-.74.04-1.12.11-.52.1-1.05.25-1.53.42-.38.14-.68.22-.9.22-.47,0-.68-.34-.9-1.14l-1.57-5.96c-.12-.49-.04-.64.43-.72.23-.04.44-.11.67-.15,2.01-.38,3.96-.58,5.73-.58m0-2c-1.86,0-3.91.21-6.1.62-.16.03-.3.07-.45.1-.07.02-.14.04-.22.05-.79.15-1.37.51-1.74,1.08-.56.87-.34,1.78-.27,2.08l1.58,5.99c.48,1.75,1.44,2.63,2.84,2.63.58,0,1.13-.17,1.6-.34.4-.14.83-.26,1.21-.33.28-.05.53-.08.75-.08.18,0,.3.02.37.03-.03.43-.9,1.86-2.96,3.43-2.42,1.84-2.83,3.31-1.65,6.06.7,1.64,1.71,3.17,4.26,3.17.35,0,.73-.03,1.2-.08l7.37-.84c1.19-.13,2.54-.42,3.39-1.54.85-1.12.77-2.49.58-3.68l-.15-.96c-.19-1.15-.61-3.74-3.54-4.04,1.74-1.89,2.75-4.2,2.15-7.42-.41-2.21-2.29-5.93-10.21-5.93h0Z" style="fill:#231f20; stroke-width:0px;"/><path d="m313.07,247.53c-.43,0-.86-.02-1.29-.06-.9-.09-2.01-.29-2.67-1.14-.65-.85-.57-1.99-.42-2.88v-.12c.22-1.35.5-3.11,2.48-3.11.42,0,.91.07,1.68.26.63.15,1.28.22,1.86.22.33,0,.63-.02.89-.07,1.07-.2.99-.58.96-.75-.02-.13-.6-.72-2.8-.94-1.63-.17-2.25-.72-2.58-2.29-.31-1.63.17-2.41,1.76-2.89,1.35-.45,2.24-1.09,2.16-1.57h0s-.12-.08-.51-.08c-.24,0-.53.03-.86.09-.78.15-1.78.48-2.81.93-.9.39-1.47.54-1.97.54-1.71,0-2.06-1.75-2.27-2.79l-.42-2.12c-.4-1.93.23-2.92,2.15-3.39.64-.15,1.27-.29,1.88-.41,1.69-.32,3.32-.48,4.84-.48,5.12,0,8.52,1.82,9.09,4.87.3,1.59-.1,3.81-3.27,5.87,1.97,1.06,3.35,2.68,3.68,4.44.37,1.95-.48,3.75-2.44,5.21-1.41,1.05-3.42,1.89-5.38,2.26-1.46.28-2.61.4-3.72.4Z" style="fill:#f7941d; stroke-width:0px;"/><path d="m315.13,225.49c4.43,0,7.62,1.43,8.11,4.05.46,2.44-1.54,4.37-4.6,5.82,2.64.77,4.63,2.51,5,4.48.65,3.47-3.79,5.7-7.03,6.31-1.28.24-2.42.38-3.54.38-.4,0-.8-.02-1.2-.06-1.99-.19-2.52-.87-2.2-2.86l.02-.19c.26-1.62.52-2.2,1.48-2.2.37,0,.84.08,1.45.23.7.16,1.42.25,2.09.25.38,0,.75-.03,1.08-.09,1.17-.22,1.97-.82,1.76-1.91-.17-.91-1.52-1.54-3.68-1.75-1.2-.12-1.46-.37-1.7-1.5-.2-1.09-.05-1.39,1.07-1.73,1.69-.56,3.07-1.49,2.85-2.71-.12-.65-.7-.89-1.49-.89-.32,0-.67.04-1.04.11-.96.18-2.07.57-3.03,1-.69.3-1.19.46-1.57.46-.72,0-1.01-.59-1.29-1.99l-.42-2.12c-.29-1.42.02-1.88,1.41-2.22.62-.14,1.23-.28,1.83-.4,1.65-.31,3.22-.46,4.66-.46m0-2c-1.59,0-3.28.17-5.03.49-.63.12-1.27.26-1.91.41-2.48.61-3.42,2.1-2.91,4.57l.42,2.11c.22,1.08.72,3.6,3.25,3.6.49,0,.99-.11,1.47-.28-.33.64-.4,1.43-.21,2.41.24,1.15.65,1.93,1.33,2.43-.13,0-.25-.01-.36-.01-2.83,0-3.25,2.62-3.45,3.88v.07s-.02.07-.02.07v.12c-.18,1.08-.25,2.45.62,3.58.89,1.15,2.26,1.42,3.36,1.52.46.04.93.06,1.39.06,1.16,0,2.4-.13,3.91-.41,2.14-.4,4.25-1.29,5.8-2.44,2.26-1.68,3.26-3.88,2.83-6.2-.31-1.66-1.34-3.17-2.88-4.32,2.5-2.11,2.79-4.32,2.48-5.99-.67-3.56-4.43-5.68-10.07-5.68h0Z" style="fill:#231f20; stroke-width:0px;"/><path d="m353.51,180.41c-.98,0-1.97-.23-2.85-.67l-22.78-11.4c-3.14-1.57-4.42-5.41-2.85-8.55l11.4-22.78c1.09-2.17,3.27-3.52,5.7-3.52.98,0,1.97.23,2.85.67l22.78,11.4c3.14,1.57,4.42,5.41,2.85,8.55l-11.4,22.78c-1.09,2.17-3.27,3.52-5.7,3.52Z" style="fill:#2f8ccb; stroke-width:0px;"/><path d="m342.13,135.49c.66,0,1.33.15,1.95.46l22.78,11.4c2.16,1.08,3.04,3.71,1.95,5.87l-11.4,22.78c-.77,1.53-2.31,2.42-3.92,2.42-.66,0-1.33-.15-1.95-.46l-22.78-11.4c-2.16-1.08-3.04-3.71-1.95-5.87l11.4-22.78c.77-1.53,2.31-2.42,3.92-2.42m0-4h0c-3.19,0-6.06,1.77-7.49,4.63l-11.4,22.78c-1,2-1.16,4.27-.46,6.39.71,2.12,2.2,3.84,4.2,4.84l22.78,11.4c1.16.58,2.45.89,3.74.89,3.19,0,6.06-1.77,7.49-4.63l11.4-22.78c1-2,1.16-4.27.46-6.39s-2.2-3.84-4.2-4.84l-22.78-11.4c-1.16-.58-2.45-.89-3.74-.89h0Z" style="fill:#231f20; stroke-width:0px;"/><circle cx="347.82" cy="156.95" r="3.19" style="stroke-width:0px;"/><g style="opacity:.73;"><g style="mask:url(#mask);"><polygon points="343.02 173.68 344.63 170.45 344.06 138.77 341.84 137.66 341.43 171.86 343.02 173.68" style="stroke-width:0px;"/></g></g><path d="m301.17,174.99c-3.49,0-6.35-2.84-6.37-6.33l-.24-35.3c-.01-1.7.64-3.31,1.84-4.52,1.2-1.21,2.79-1.89,4.5-1.9l35.3-.24c3.53,0,6.39,2.84,6.42,6.33l.24,35.3c.01,1.7-.64,3.31-1.84,4.52-1.2,1.21-2.79,1.89-4.5,1.9l-35.34.24Z" style="fill:#2f8ccb; stroke-width:0px;"/><path d="m336.23,128.7c2.4,0,4.36,1.94,4.37,4.34l.24,35.3c.02,2.42-1.93,4.39-4.34,4.4l-35.3.24h-.03c-2.4,0-4.36-1.94-4.37-4.34l-.24-35.3c-.02-2.42,1.93-4.39,4.34-4.4l35.3-.24h.03m0-4h-.06l-35.3.24c-4.62.03-8.35,3.81-8.32,8.43l.24,35.3c.03,4.59,3.79,8.32,8.37,8.32h.06l35.3-.24c2.24-.02,4.33-.9,5.9-2.49s2.43-3.7,2.41-5.94l-.24-35.3c-.03-4.59-3.79-8.32-8.37-8.32h0Z" style="fill:#231f20; stroke-width:0px;"/><circle cx="318.7" cy="150.84" r="4.11" style="stroke-width:0px;"/><circle cx="306.2" cy="164.98" r="4.11" style="stroke-width:0px;"/><circle cx="331.41" cy="137.03" r="4.11" style="stroke-width:0px;"/></g></svg>